<?xml version="1.0" encoding="UTF-8"?>
<!DOCTYPE svg PUBLIC "-//W3C//DTD SVG 1.1//EN" "http://www.w3.org/Graphics/SVG/1.1/DTD/svg11.dtd">
<!-- Creator: CorelDRAW X7 -->
<svg xmlns="http://www.w3.org/2000/svg" xml:space="preserve" width="480px" height="420px" version="1.1" style="shape-rendering:geometricPrecision; text-rendering:geometricPrecision; image-rendering:optimizeQuality; fill-rule:evenodd; clip-rule:evenodd"
viewBox="0 0 480 420"
 xmlns:xlink="http://www.w3.org/1999/xlink">
 <defs>
  <style type="text/css">
   <![CDATA[
    .fil0 {fill:white;fill-rule:nonzero}
   ]]>
  </style>
 </defs>
 <g id="Layer_x0020_1">
  <metadata id="CorelCorpID_0Corel-Layer"/>
  <path class="fil0" d="M376 338c2,2 2,6 0,8 -3,2 -6,2 -9,0l-31 -32c3,-2 5,-6 7,-9l33 33zm-236 -220l-36 -36c-2,-2 -2,-6 0,-8 3,-2 6,-2 9,0l42 42c-5,1 -10,1 -15,2zm286 86c4,0 6,3 6,6 0,3 -2,6 -6,6l-87 0c-2,-3 -4,-5 -7,-8 1,-2 3,-4 6,-4l88 0zm-59 -130c3,-2 6,-2 9,0 2,2 2,6 0,8l-63 63c-2,2 -6,2 -8,0 -2,-2 -2,-6 0,-8l62 -63zm-2 182c4,1 5,4 4,7 -2,3 -5,5 -8,4l-5 -2c0,-1 0,-1 0,-2 0,-4 0,-8 -1,-12l10 5zm-79 -172c1,-3 4,-4 7,-3 3,1 5,5 3,8l-13 33c-1,3 -5,4 -8,3 -3,-1 -4,-5 -3,-8l14 -33zm75 70c3,-2 6,0 8,3 1,3 -1,6 -4,7l-32 14c-3,1 -7,0 -8,-3 -1,-3 0,-7 3,-8l33 -13zm-153 -37c1,3 0,7 -3,8l0 0c-3,-1 -5,-2 -8,-3 0,0 0,0 0,0l-13 -33c-2,-3 0,-6 3,-8 3,-1 6,0 8,4l13 32zm26 -93c0,-4 3,-6 6,-6 3,0 6,2 6,6l0 88c0,3 -3,6 -6,6 -3,0 -6,-3 -6,-6l0 -88zm79 171c-7,-34 -37,-59 -73,-59 -5,0 -10,0 -14,1 4,3 8,7 12,10 1,0 1,0 2,0 27,0 50,18 59,43 5,1 9,3 14,5z"/>
  <path class="fil0" d="M332 263c0,-14 -6,-27 -15,-36 -10,-9 -23,-15 -37,-15 -4,0 -9,0 -13,1 -3,1 -5,2 -8,3 0,2 0,3 0,4 0,3 1,5 1,8 0,4 -1,8 -1,12 -1,4 -2,8 -3,12 0,3 -4,5 -7,4 -3,0 -5,-4 -4,-7 1,-3 2,-7 2,-10 0,-4 1,-8 1,-11 0,-3 0,-5 -1,-7 0,-3 0,-5 0,-7l0 0c-4,-21 -15,-40 -30,-53 -15,-13 -35,-20 -56,-20 -25,0 -46,9 -62,25 -16,16 -26,38 -26,62 0,3 1,7 1,11 0,3 1,7 2,10 1,3 -1,7 -4,7 -1,1 -2,1 -3,0 -1,0 -2,0 -4,0 -1,0 -2,0 -3,0 -8,0 -16,3 -21,8 -6,6 -9,13 -9,21 0,9 3,16 9,21 5,6 13,9 21,9l99 0 119 0c14,0 27,-6 37,-15 9,-9 15,-22 15,-37zm-7 -44c12,11 19,27 19,44 0,18 -7,34 -19,45 -11,12 -27,19 -45,19l-119 0 -99 0c-12,0 -22,-5 -30,-12 -7,-8 -12,-18 -12,-30 0,-11 5,-22 12,-29 8,-8 18,-12 30,-12 0,0 0,0 1,0 0,-1 -1,-3 -1,-4 0,-4 -1,-8 -1,-12 0,-28 12,-52 29,-70 18,-18 43,-29 71,-29 24,0 46,9 64,23 15,14 27,32 32,52 2,-1 5,-1 7,-2 6,-1 11,-2 16,-2 18,0 34,7 45,19z"/>
 </g>
</svg>
