<?xml version="1.0" encoding="utf-8"?>
<!-- Generator: Adobe Illustrator 22.1.0, SVG Export Plug-In . SVG Version: 6.00 Build 0)  -->
<svg version="1.1" id="Layer_1" xmlns="http://www.w3.org/2000/svg" xmlns:xlink="http://www.w3.org/1999/xlink" x="0px" y="0px"
	 viewBox="0 0 480 420" style="enable-background:new 0 0 480 420;" xml:space="preserve">
<style type="text/css">
	.st0{fill:#FFFFFF;}
	.st1{fill:none;stroke:#FEFEFE;stroke-width:11.811;stroke-linecap:round;}
</style>
<g id="Layer_x0020_1">
	<path class="st0" d="M289,213c-3-1-6-1-9-1c-4,0-9,0-13,1c-3,1-5,2-8,3c0,2,0,3,0,4c0,3,1,5,1,8c0,4-1,8-1,12c-1,4-2,8-3,12
		c0,3-4,5-7,4c-3,0-5-4-4-7s2-7,2-10c0-4,1-8,1-11s0-5-1-7c0-3,0-5,0-7l0,0c-4-21-15-40-30-53s-35-20-56-20c-25,0-46,9-62,25
		s-26,38-26,62c0,3,1,7,1,11c0,3,1,7,2,10s-1,7-4,7c-1,1-2,1-3,0c-1,0-2,0-4,0c-1,0-2,0-3,0c-8,0-16,3-21,8c-6,6-9,13-9,21
		c0,9,3,16,9,21c5,6,13,9,21,9h99h65c-1,1-1,3-1,4c0,3,1,5,1,8h-65H62c-12,0-22-5-30-12c-7-8-12-18-12-30c0-11,5-22,12-29
		c8-8,18-12,30-12c0,0,0,0,1,0c0-1-1-3-1-4c0-4-1-8-1-12c0-28,12-52,29-70c18-18,43-29,71-29c24,0,46,9,64,23c15,14,27,32,32,52
		c2-1,5-1,7-2c6-1,11-2,16-2c9,0,17,2,24,5C299,207,294,209,289,213z"/>
	<path class="st0" d="M447,273c8,8,13,19,13,31s-5,24-13,32s-19,13-32,13h-80h-66c-9,0-16-4-21-9l0,0c-6-5-9-13-9-21s3-16,9-21
		c5-5,11-8,19-9l0,0c0-3,0-6,0-9c0-19,7-36,20-48c12-13,29-20,48-20c17,0,32,6,44,16c11,9,18,21,22,34c1,0,2-1,3-1c4-1,8-1,11-1
		C428,260,439,265,447,273z M448,304c0-9-4-17-10-23c-5-6-14-10-23-10c-3,0-5,1-8,1c-1,1-3,1-4,2c0,0,0,0,0,1c0,2,0,3,0,5
		c0,3,0,6,0,9c-1,3-1,5-2,8s-4,5-7,4c-3,0-5-4-4-7c0-2,1-4,1-7c0-2,1-4,1-7c0-1,0-3-1-4c0-2,0-3,0-5l0,0c-2-14-9-25-19-34
		c-10-8-23-13-37-13c-16,0-30,6-40,16s-17,25-17,40c0,3,0,5,1,7c0,3,0,5,1,7c1,3-1,7-4,7c-1,1-2,1-3,0c-1,0-2,0-2,0c-1,0-2,0-2,0
		c-5,0-10,2-13,5s-5,8-5,13s2,9,5,13l0,0l0,0c3,3,8,5,13,5h66h80c9,0,18-4,23-10C444,321,448,313,448,304z"/>
	<g id="_249846768">
		<line class="st1" x1="117" y1="400" x2="123" y2="345"/>
		<line class="st1" x1="159" y1="400" x2="165" y2="345"/>
	</g>
</g>
</svg>
